<?xml version="1.0" encoding="UTF-8" standalone="no"?>
<!-- (c) ammap.com | SVG weather icons -->

<svg
   width="52"
   height="52"
   version="1.1"
   id="svg12"
   xmlns="http://www.w3.org/2000/svg"
   xmlns:svg="http://www.w3.org/2000/svg">
  <defs
     id="defs2">
    <filter
       id="blur"
       x="-0.16923077"
       y="-0.23327992"
       width="1.328386"
       height="1.5629808">
      <feGaussianBlur
         in="SourceAlpha"
         stdDeviation="3"
         id="feGaussianBlur1" />
      <feOffset
         dx="0"
         dy="4"
         result="offsetblur"
         id="feOffset1" />
      <feComponentTransfer
         id="feComponentTransfer1">
        <feFuncA
           slope="0.05"
           type="linear"
           id="feFuncA1" />
      </feComponentTransfer>
      <feMerge
         id="feMerge2">
        <feMergeNode
           id="feMergeNode1" />
        <feMergeNode
           in="SourceGraphic"
           id="feMergeNode2" />
      </feMerge>
    </filter>
  </defs>
  <g
     transform="translate(16,-2)"
     filter="url(#blur)"
     id="g12">
    <g
       class="am-weather-sun"
       transform="matrix(1.2590799,0,0,1.2590799,0.36803875,25.230024)"
       id="g10">
      <line
         transform="translate(0,9)"
         y2="3"
         fill="none"
         stroke="#ffa500"
         stroke-linecap="round"
         stroke-width="2"
         id="line2"
         x1="0"
         y1="0"
         x2="0" />
      <g
         transform="rotate(45)"
         id="g3">
        <line
           transform="translate(0,9)"
           y2="3"
           fill="none"
           stroke="#ffa500"
           stroke-linecap="round"
           stroke-width="2"
           id="line3"
           x1="0"
           y1="0"
           x2="0" />
      </g>
      <g
         transform="rotate(90)"
         id="g4">
        <line
           transform="translate(0,9)"
           y2="3"
           fill="none"
           stroke="#ffa500"
           stroke-linecap="round"
           stroke-width="2"
           id="line4"
           x1="0"
           y1="0"
           x2="0" />
      </g>
      <g
         transform="rotate(135)"
         id="g5">
        <line
           transform="translate(0,9)"
           y2="3"
           fill="none"
           stroke="#ffa500"
           stroke-linecap="round"
           stroke-width="2"
           id="line5"
           x1="0"
           y1="0"
           x2="0" />
      </g>
      <g
         transform="scale(-1)"
         id="g6">
        <line
           transform="translate(0,9)"
           y2="3"
           fill="none"
           stroke="#ffa500"
           stroke-linecap="round"
           stroke-width="2"
           id="line6"
           x1="0"
           y1="0"
           x2="0" />
      </g>
      <g
         transform="rotate(-135)"
         id="g7">
        <line
           transform="translate(0,9)"
           y2="3"
           fill="none"
           stroke="#ffa500"
           stroke-linecap="round"
           stroke-width="2"
           id="line7"
           x1="0"
           y1="0"
           x2="0" />
      </g>
      <g
         transform="rotate(-90)"
         id="g8">
        <line
           transform="translate(0,9)"
           y2="3"
           fill="none"
           stroke="#ffa500"
           stroke-linecap="round"
           stroke-width="2"
           id="line8"
           x1="0"
           y1="0"
           x2="0" />
      </g>
      <g
         transform="rotate(-45)"
         id="g9">
        <line
           transform="translate(0,9)"
           y2="3"
           fill="none"
           stroke="#ffa500"
           stroke-linecap="round"
           stroke-width="2"
           id="line9"
           x1="0"
           y1="0"
           x2="0" />
      </g>
      <circle
         r="5"
         fill="#ffa500"
         stroke="#ffa500"
         stroke-width="2"
         id="circle9"
         cx="0"
         cy="0" />
    </g>
    <g
       class="am-weather-cloud-1"
       id="g11"
       transform="matrix(1.2590799,0,0,1.2590799,0.36803875,5.0847456)">
      <path
         transform="translate(-20,-11)"
         d="m 47.7,35.4 c 0,-4.6 -3.7,-8.2 -8.2,-8.2 -1,0 -1.9,0.2 -2.8,0.5 -0.3,-3.4 -3.1,-6.2 -6.6,-6.2 -3.7,0 -6.7,3 -6.7,6.7 0,0.8 0.2,1.6 0.4,2.3 -0.3,-0.1 -0.7,-0.1 -1,-0.1 -3.7,0 -6.7,3 -6.7,6.7 0,3.6 2.9,6.6 6.5,6.7 h 17.2 c 4.4,-0.5 7.9,-4 7.9,-8.4 z"
         fill="#c6deff"
         stroke="#ffffff"
         stroke-linejoin="round"
         stroke-width="1.2"
         id="path10" />
    </g>
  </g>
</svg>
