<?xml version="1.0" encoding="UTF-8" standalone="no"?>
<!-- (c) ammap.com | SVG weather icons -->

<!-- Severe Thunderstorm | Contributed by hsoJ95 on GitHub: https://github.com/hsoj95 -->

<svg
   width="52"
   height="52"
   version="1.1"
   id="svg6"
   xmlns="http://www.w3.org/2000/svg"
   xmlns:svg="http://www.w3.org/2000/svg">
  <defs
     id="defs2">
    <filter
       id="blur"
       x="-0.15496465"
       y="-0.15773577"
       width="1.2954333"
       height="1.3887957">
      <feGaussianBlur
         in="SourceAlpha"
         stdDeviation="3"
         id="feGaussianBlur1" />
      <feOffset
         dx="0"
         dy="4"
         result="offsetblur"
         id="feOffset1" />
      <feComponentTransfer
         id="feComponentTransfer1">
        <feFuncA
           slope="0.05"
           type="linear"
           id="feFuncA1" />
      </feComponentTransfer>
      <feMerge
         id="feMerge2">
        <feMergeNode
           id="feMergeNode1" />
        <feMergeNode
           in="SourceGraphic"
           id="feMergeNode2" />
      </feMerge>
    </filter>
  </defs>
  <g
     transform="translate(16,-2)"
     filter="url(#blur)"
     id="g6">
    <g
       class="am-weather-cloud-1d"
       id="g2"
       transform="matrix(1.2383665,0,0,1.2383665,-10.427351,-4.5579617)">
      <path
         transform="matrix(0.6,0,0,0.6,-10,-6)"
         d="m 47.7,35.4 c 0,-4.6 -3.7,-8.2 -8.2,-8.2 -1,0 -1.9,0.2 -2.8,0.5 -0.3,-3.4 -3.1,-6.2 -6.6,-6.2 -3.7,0 -6.7,3 -6.7,6.7 0,0.8 0.2,1.6 0.4,2.3 -0.3,-0.1 -0.7,-0.1 -1,-0.1 -3.7,0 -6.7,3 -6.7,6.7 0,3.6 2.9,6.6 6.5,6.7 h 17.2 c 4.4,-0.5 7.9,-4 7.9,-8.4 z"
         fill="#666666"
         stroke="#ffffff"
         stroke-linejoin="round"
         stroke-width="1.2"
         id="path2" />
    </g>
    <g
       class="am-weather-cloud-3d"
       id="g3"
       transform="matrix(1.2383665,0,0,1.2383665,-10.427351,-4.5579617)">
      <path
         transform="translate(-20,-11)"
         d="m 47.7,35.4 c 0,-4.6 -3.7,-8.2 -8.2,-8.2 -1,0 -1.9,0.2 -2.8,0.5 -0.3,-3.4 -3.1,-6.2 -6.6,-6.2 -3.7,0 -6.7,3 -6.7,6.7 0,0.8 0.2,1.6 0.4,2.3 -0.3,-0.1 -0.7,-0.1 -1,-0.1 -3.7,0 -6.7,3 -6.7,6.7 0,3.6 2.9,6.6 6.5,6.7 h 17.2 c 4.4,-0.5 7.9,-4 7.9,-8.4 z"
         fill="#333333"
         stroke="#ffffff"
         stroke-linejoin="round"
         stroke-width="1.2"
         id="path3" />
    </g>
    <g
       class="am-weather-lightning"
       transform="matrix(1.4860398,0,0,1.4860398,-15.380817,30.1163)"
       id="g4">
      <polygon
         class="am-weather-stroke"
         points="20.5,-2.9 16.4,4.3 20.3,4.3 11.5,14.6 14.9,6.9 11.1,6.9 14.3,-2.9 "
         fill="#ffa500"
         stroke="#ffffff"
         id="polygon3" />
    </g>
    <g
       class="warning"
       transform="matrix(1.2383665,0,0,1.2383665,14.339979,32.593033)"
       id="g5">
      <path
         d="M 7.7791,2.906 1.7879,13.023 c -0.56283,0.95042 -0.24862,2.1772 0.7018,2.74 0.30853,0.18271 0.66051,0.27911 1.0191,0.27911 h 11.982 c 1.1046,0 2,-0.89543 2,-2 0,-0.35857 -0.0964,-0.71056 -0.27911,-1.0191 l -5.9912,-10.117 c -0.56283,-0.95042 -1.7896,-1.2646 -2.74,-0.7018 -0.28918,0.17125 -0.53055,0.41262 -0.7018,0.7018 z"
         fill="#cc0000"
         id="path4" />
      <path
         d="m 9.5,10.5 v -5"
         stroke="#ffffff"
         stroke-linecap="round"
         stroke-width="1.5"
         id="path5" />
      <circle
         cx="9.5"
         cy="13"
         r="1"
         fill="#ffffff"
         id="circle5" />
    </g>
  </g>
</svg>
