<?xml version="1.0" encoding="UTF-8" standalone="no"?>
<!-- (c) ammap.com | SVG weather icons -->

<svg
   width="52"
   height="52"
   version="1.1"
   id="svg15"
   xmlns="http://www.w3.org/2000/svg"
   xmlns:svg="http://www.w3.org/2000/svg">
  <defs
     id="defs2">
    <filter
       id="blur"
       x="-0.16270691"
       y="-0.17729443"
       width="1.3254138"
       height="1.4415915">
      <feGaussianBlur
         in="SourceAlpha"
         stdDeviation="3"
         id="feGaussianBlur1" />
      <feOffset
         dx="0"
         dy="4"
         result="offsetblur"
         id="feOffset1" />
      <feComponentTransfer
         id="feComponentTransfer1">
        <feFuncA
           slope="0.05"
           type="linear"
           id="feFuncA1" />
      </feComponentTransfer>
      <feMerge
         id="feMerge2">
        <feMergeNode
           id="feMergeNode1" />
        <feMergeNode
           in="SourceGraphic"
           id="feMergeNode2" />
      </feMerge>
    </filter>
  </defs>
  <g
     transform="translate(16,-2)"
     filter="url(#blur)"
     id="g15">
    <g
       class="am-weather-cloud-3"
       id="g2"
       transform="matrix(1.5853659,0,0,1.5853659,-8.8658542,-11.634148)">
      <path
         transform="translate(-20,-11)"
         d="m 47.7,35.4 c 0,-4.6 -3.7,-8.2 -8.2,-8.2 -1,0 -1.9,0.2 -2.8,0.5 -0.3,-3.4 -3.1,-6.2 -6.6,-6.2 -3.7,0 -6.7,3 -6.7,6.7 0,0.8 0.2,1.6 0.4,2.3 -0.3,-0.1 -0.7,-0.1 -1,-0.1 -3.7,0 -6.7,3 -6.7,6.7 0,3.6 2.9,6.6 6.5,6.7 h 17.2 c 4.4,-0.5 7.9,-4 7.9,-8.4 z"
         fill="#57a0ee"
         stroke="#ffffff"
         stroke-linejoin="round"
         stroke-width="1.2"
         id="path2" />
    </g>
    <g
       class="am-weather-snow-1"
       id="g6"
       transform="matrix(1.5853659,0,0,1.5853659,-8.8658542,-11.634148)">
      <g
         transform="translate(3,28)"
         fill="none"
         stroke="#57a0ee"
         stroke-linecap="round"
         id="g5">
        <line
           transform="translate(0,9)"
           y1="-2.5"
           y2="2.5"
           stroke-width="1.2"
           id="line2"
           x1="0"
           x2="0" />
        <line
           transform="rotate(45,-10.864,4.5)"
           y1="-2.5"
           y2="2.5"
           id="line3"
           x1="0"
           x2="0" />
        <line
           transform="rotate(90,-4.5,4.5)"
           y1="-2.5"
           y2="2.5"
           id="line4"
           x1="0"
           x2="0" />
        <line
           transform="rotate(135,-1.864,4.5)"
           y1="-2.5"
           y2="2.5"
           id="line5"
           x1="0"
           x2="0" />
      </g>
    </g>
    <g
       class="am-weather-snow-2"
       id="g10"
       transform="matrix(1.5853659,0,0,1.5853659,-8.8658542,-11.634148)">
      <g
         transform="translate(11,28)"
         fill="none"
         stroke="#57a0ee"
         stroke-linecap="round"
         id="g9">
        <line
           transform="translate(0,9)"
           y1="-2.5"
           y2="2.5"
           stroke-width="1.2"
           id="line6"
           x1="0"
           x2="0" />
        <line
           transform="rotate(45,-10.864,4.5)"
           y1="-2.5"
           y2="2.5"
           id="line7"
           x1="0"
           x2="0" />
        <line
           transform="rotate(90,-4.5,4.5)"
           y1="-2.5"
           y2="2.5"
           id="line8"
           x1="0"
           x2="0" />
        <line
           transform="rotate(135,-1.864,4.5)"
           y1="-2.5"
           y2="2.5"
           id="line9"
           x1="0"
           x2="0" />
      </g>
    </g>
    <g
       class="am-weather-snow-3"
       id="g14"
       transform="matrix(1.5853659,0,0,1.5853659,-8.8658542,-11.634148)">
      <g
         transform="translate(20,28)"
         fill="none"
         stroke="#57a0ee"
         stroke-linecap="round"
         id="g13">
        <line
           transform="translate(0,9)"
           y1="-2.5"
           y2="2.5"
           stroke-width="1.2"
           id="line10"
           x1="0"
           x2="0" />
        <line
           transform="rotate(45,-10.864,4.5)"
           y1="-2.5"
           y2="2.5"
           id="line11"
           x1="0"
           x2="0" />
        <line
           transform="rotate(90,-4.5,4.5)"
           y1="-2.5"
           y2="2.5"
           id="line12"
           x1="0"
           x2="0" />
        <line
           transform="rotate(135,-1.864,4.5)"
           y1="-2.5"
           y2="2.5"
           id="line13"
           x1="0"
           x2="0" />
      </g>
    </g>
  </g>
</svg>
