<?xml version="1.0" encoding="UTF-8" standalone="no"?>
<!-- (c) ammap.com | SVG weather icons -->

<svg
   width="52"
   height="52"
   version="1.1"
   id="svg19"
   xmlns="http://www.w3.org/2000/svg"
   xmlns:svg="http://www.w3.org/2000/svg">
  <defs
     id="defs2">
    <filter
       id="blur"
       x="-0.15551146"
       y="-0.16413378"
       width="1.2960454"
       height="1.4369457">
      <feGaussianBlur
         in="SourceAlpha"
         stdDeviation="3"
         id="feGaussianBlur1" />
      <feOffset
         dx="0"
         dy="4"
         result="offsetblur"
         id="feOffset1" />
      <feComponentTransfer
         id="feComponentTransfer1">
        <feFuncA
           slope="0.05"
           type="linear"
           id="feFuncA1" />
      </feComponentTransfer>
      <feMerge
         id="feMerge2">
        <feMergeNode
           id="feMergeNode1" />
        <feMergeNode
           in="SourceGraphic"
           id="feMergeNode2" />
      </feMerge>
    </filter>
  </defs>
  <g
     transform="translate(16,-2)"
     filter="url(#blur)"
     id="g19">
    <g
       transform="matrix(1.0231289,0,0,1.0231289,10.217415,4.148306)"
       id="g5">
      <g
         class="am-weather-moon-star-1"
         id="g2">
        <polygon
           points="3.3,1.5 4,2.7 5.2,3.3 4,4 3.3,5.2 2.7,4 1.5,3.3 2.7,2.7 "
           fill="#ffa500"
           stroke-miterlimit="10"
           id="polygon2" />
      </g>
      <g
         class="am-weather-moon-star-2"
         id="g3">
        <polygon
           transform="translate(20,10)"
           points="3.3,1.5 4,2.7 5.2,3.3 4,4 3.3,5.2 2.7,4 1.5,3.3 2.7,2.7 "
           fill="#ffa500"
           stroke-miterlimit="10"
           id="polygon3" />
      </g>
      <g
         class="am-weather-moon"
         id="g4">
        <path
           d="m 14.5,13.2 c 0,-3.7 2,-6.9 5,-8.7 -1.5,-0.9 -3.2,-1.3 -5,-1.3 -5.5,0 -10,4.5 -10,10 0,5.5 4.5,10 10,10 1.8,0 3.5,-0.5 5,-1.3 -3,-1.7 -5,-5 -5,-8.7 z"
           fill="#ffa500"
           stroke="#ffa500"
           stroke-linejoin="round"
           stroke-width="2"
           id="path3" />
      </g>
    </g>
    <g
       class="am-weather-cloud-3"
       id="g6"
       transform="matrix(1.2789112,0,0,1.2789112,-10.245163,-0.9673385)">
      <path
         transform="translate(-20,-11)"
         d="m 47.7,35.4 c 0,-4.6 -3.7,-8.2 -8.2,-8.2 -1,0 -1.9,0.2 -2.8,0.5 -0.3,-3.4 -3.1,-6.2 -6.6,-6.2 -3.7,0 -6.7,3 -6.7,6.7 0,0.8 0.2,1.6 0.4,2.3 -0.3,-0.1 -0.7,-0.1 -1,-0.1 -3.7,0 -6.7,3 -6.7,6.7 0,3.6 2.9,6.6 6.5,6.7 h 17.2 c 4.4,-0.5 7.9,-4 7.9,-8.4 z"
         fill="#57a0ee"
         stroke="#ffffff"
         stroke-linejoin="round"
         stroke-width="1.2"
         id="path5" />
    </g>
    <g
       class="am-weather-snow-1"
       id="g10"
       transform="matrix(1.2789112,0,0,1.2789112,-10.245163,-0.9673385)">
      <g
         transform="translate(3,28)"
         fill="none"
         stroke="#57a0ee"
         stroke-linecap="round"
         id="g9">
        <line
           transform="translate(0,9)"
           y1="-2.5"
           y2="2.5"
           stroke-width="1.2"
           id="line6"
           x1="0"
           x2="0" />
        <line
           transform="rotate(45,-10.864,4.5)"
           y1="-2.5"
           y2="2.5"
           id="line7"
           x1="0"
           x2="0" />
        <line
           transform="rotate(90,-4.5,4.5)"
           y1="-2.5"
           y2="2.5"
           id="line8"
           x1="0"
           x2="0" />
        <line
           transform="rotate(135,-1.864,4.5)"
           y1="-2.5"
           y2="2.5"
           id="line9"
           x1="0"
           x2="0" />
      </g>
    </g>
    <g
       class="am-weather-snow-2"
       id="g14"
       transform="matrix(1.2789112,0,0,1.2789112,-10.245163,-0.9673385)">
      <g
         transform="translate(11,28)"
         fill="none"
         stroke="#57a0ee"
         stroke-linecap="round"
         id="g13">
        <line
           transform="translate(0,9)"
           y1="-2.5"
           y2="2.5"
           stroke-width="1.2"
           id="line10"
           x1="0"
           x2="0" />
        <line
           transform="rotate(45,-10.864,4.5)"
           y1="-2.5"
           y2="2.5"
           id="line11"
           x1="0"
           x2="0" />
        <line
           transform="rotate(90,-4.5,4.5)"
           y1="-2.5"
           y2="2.5"
           id="line12"
           x1="0"
           x2="0" />
        <line
           transform="rotate(135,-1.864,4.5)"
           y1="-2.5"
           y2="2.5"
           id="line13"
           x1="0"
           x2="0" />
      </g>
    </g>
    <g
       class="am-weather-snow-3"
       id="g18"
       transform="matrix(1.2789112,0,0,1.2789112,-10.245163,-0.9673385)">
      <g
         transform="translate(20,28)"
         fill="none"
         stroke="#57a0ee"
         stroke-linecap="round"
         id="g17">
        <line
           transform="translate(0,9)"
           y1="-2.5"
           y2="2.5"
           stroke-width="1.2"
           id="line14"
           x1="0"
           x2="0" />
        <line
           transform="rotate(45,-10.864,4.5)"
           y1="-2.5"
           y2="2.5"
           id="line15"
           x1="0"
           x2="0" />
        <line
           transform="rotate(90,-4.5,4.5)"
           y1="-2.5"
           y2="2.5"
           id="line16"
           x1="0"
           x2="0" />
        <line
           transform="rotate(135,-1.864,4.5)"
           y1="-2.5"
           y2="2.5"
           id="line17"
           x1="0"
           x2="0" />
      </g>
    </g>
  </g>
</svg>
