<?xml version="1.0" encoding="UTF-8" standalone="no"?>
<!-- Created with Inkscape (http://www.inkscape.org/) -->

<svg
   width="1200"
   height="675"
   viewBox="0 0 317.49998 178.59376"
   version="1.1"
   id="svg1"
   xml:space="preserve"
   inkscape:version="1.4.2 (ebf0e940d0, 2025-05-08)"
   sodipodi:docname="ashell_social_card.svg"
   inkscape:export-filename="ashell_social_card.png"
   inkscape:export-xdpi="96"
   inkscape:export-ydpi="96"
   xmlns:inkscape="http://www.inkscape.org/namespaces/inkscape"
   xmlns:sodipodi="http://sodipodi.sourceforge.net/DTD/sodipodi-0.dtd"
   xmlns="http://www.w3.org/2000/svg"
   xmlns:svg="http://www.w3.org/2000/svg"><sodipodi:namedview
     id="namedview1"
     pagecolor="#ffffff"
     bordercolor="#000000"
     borderopacity="0.25"
     inkscape:showpageshadow="2"
     inkscape:pageopacity="0.0"
     inkscape:pagecheckerboard="0"
     inkscape:deskcolor="#d1d1d1"
     inkscape:document-units="px"
     inkscape:zoom="0.46017229"
     inkscape:cx="568.26541"
     inkscape:cy="503.07244"
     inkscape:window-width="1396"
     inkscape:window-height="882"
     inkscape:window-x="0"
     inkscape:window-y="0"
     inkscape:window-maximized="1"
     inkscape:current-layer="svg1" /><defs
     id="defs1" /><g
     inkscape:label="Layer 1"
     inkscape:groupmode="layer"
     id="layer1"
     transform="matrix(0.9497903,0,0,0.9497903,-27.795347,35.889305)"><g
       id="g1"
       transform="matrix(1.7152236,0,0,1.7152236,-4.773737,-40.217671)"><rect
         style="fill:#32344a;stroke-width:0.290897"
         id="rect1"
         width="72.760414"
         height="72.760414"
         x="1.4313965e-06"
         y="52.916668"
         ry="17.176725"
         transform="matrix(1.052864,0,0,1.052864,29.26472,-37.786557)" /><path
         style="fill:#a9b1d6;fill-opacity:1;stroke:none;stroke-width:0.0632697;stroke-dasharray:none;stroke-opacity:1"
         d="m 90.81299,41.905155 c -0.634981,-0.714388 -0.371532,0.615721 -13.014534,7.115952 -12.642999,6.500231 -17.720488,9.066856 -18.065877,12.13801 -0.298662,2.655667 1.514795,3.125982 2.145325,6.915843 0.63053,3.78986 -1.992446,17.018789 -2.766339,19.223219 -0.773892,2.20443 1.490387,2.594165 2.004185,0.564556 0.513799,-2.029609 2.926592,-10.578249 3.91955,-16.953781 0.992956,-6.375531 1.401565,-8.459975 3.043063,-11.744165 1.641498,-3.28419 11.71748,-8.489832 15.653713,-11.332946 3.936232,-2.843116 7.715897,-5.2123 7.080914,-5.926688 z"
         id="path1"
         sodipodi:nodetypes="zzszzzzzzz" /><path
         style="fill:#7aa2f7;fill-opacity:1;stroke:none;stroke-width:0.0632697;stroke-dasharray:none;stroke-opacity:1"
         d="m 53.353069,70.333194 c 0.129046,-1.044129 0.55506,-9.473711 4.597564,-14.816071 4.042504,-5.342362 11.079199,-7.48489 12.459162,-7.801559 1.379962,-0.316667 1.347237,-2.076579 -0.169367,-2.152379 -1.516603,-0.0758 -9.489964,2.970129 -14.085339,8.828665 -4.595374,5.858535 -4.947319,14.5126 -5.024762,15.582892 -0.154885,2.140583 1.964649,2.446708 2.222742,0.358452 z"
         id="path2"
         sodipodi:nodetypes="szzzzss" /><path
         style="fill:#a9b1d6;fill-opacity:1;stroke:none;stroke-width:0.0632697;stroke-dasharray:none;stroke-opacity:1"
         d="m 44.428201,40.127597 c -0.603004,0.925586 0.47189,1.92855 1.395449,0.525469 0.923558,-1.40308 3.855449,-4.951506 7.105999,-6.592761 3.25055,-1.641255 7.600775,-1.671549 10.726613,-1.975957 3.125838,-0.304407 4.875063,-3.170604 7.536859,-4.714063 2.661795,-1.543458 4.792457,-2.622796 5.993713,-2.822793 1.201257,-0.199996 1.004918,-1.375902 0.02196,-1.266831 -0.982951,0.10907 -3.534424,1.056816 -6.739625,2.8111 -3.2052,1.754283 -4.717683,3.799992 -6.629431,4.270684 -1.911749,0.470693 -6.295751,-0.94451 -11.756932,2.371146 -5.461181,3.315655 -7.051608,6.468418 -7.654611,7.394006 z"
         id="path3"
         sodipodi:nodetypes="zzzzzzzzzzz" /></g></g><g
     id="g2"
     transform="translate(0,-3.7048589)"><path
       style="font-size:19.7556px;font-family:Boogaloo;-inkscape-font-specification:Boogaloo;fill:#32344a;stroke-width:0.206766"
       d="m 170.4606,69.158752 q 0.92631,-4.816853 3.52001,-8.151585 2.59368,-3.3965 6.79298,-3.3965 4.19927,0 6.17542,3.520003 2.03791,3.458237 2.03791,9.880722 0,6.422447 -0.74105,17.723424 l -5.18739,-0.432277 -0.49403,-1.976101 q -2.90245,1.667361 -5.92841,1.667361 -3.02598,0 -5.00212,-1.976138 -1.97614,-2.037898 -1.97614,-5.804897 0,-3.766989 3.70527,-6.484195 3.76703,-2.717177 8.64562,-2.840681 v -1.667399 q 0,-4.87859 -2.34667,-4.87859 -1.17333,0 -2.1614,1.667365 -0.92631,1.605627 -1.35858,3.705279 z m 5.49614,11.424529 q 0,1.976128 2.34668,1.976128 1.60558,0 3.39647,-0.741024 l 0.12355,-5.18734 q -2.90243,0.246957 -4.38454,1.482081 -1.48211,1.173344 -1.48211,2.470155 z M 206.33987,67.92367 q 0,-3.705277 -1.85263,-3.705277 -0.9263,0 -1.72911,0.926304 -0.74105,0.864567 -0.74105,2.408428 0,1.482124 0.55579,2.470194 0.61754,0.988073 2.16139,1.976146 1.60561,0.926304 2.47016,1.54386 0.92633,0.555787 2.16141,1.605598 2.53194,2.223146 2.53194,5.743138 0,3.458239 -2.65545,5.619617 -2.59369,2.161408 -5.86664,2.161408 -3.27301,0 -5.92844,-1.729121 -2.59371,-1.790858 -4.19931,-4.446283 l 3.33475,-3.766999 q 2.47017,4.261016 5.18737,4.261016 0.92633,0 1.60563,-0.494017 0.67929,-0.555787 0.67929,-1.482124 0,-1.976128 -2.84071,-3.643489 -3.02597,-1.667358 -4.75509,-3.705238 -1.72913,-2.037913 -1.72913,-5.743161 0,-3.767045 3.08772,-6.731229 3.08773,-3.025986 6.60774,-3.025986 3.58174,0 5.61963,2.470198 2.09965,2.408395 2.09965,6.545956 0,1.667365 -0.37053,3.581742 l -5.61965,-0.49402 q 0.18527,-1.420357 0.18527,-2.346661 z m 17.97055,-5.681421 q 2.8407,-3.520006 5.55788,-3.520006 2.77896,0 4.50809,1.85264 3.02597,3.211228 3.02597,8.151588 0,8.954378 -0.67929,18.711541 l -7.16353,-0.679324 q 0.43227,-9.077839 0.43227,-17.846946 0,-3.272991 -1.66737,-3.272991 -1.97613,0 -4.26102,8.645606 -0.12356,6.175414 -0.61756,14.018182 l -7.22527,-0.679287 q 0.8028,-10.62169 0.8028,-23.713638 0,-13.091913 -0.43229,-21.05826 l 7.22529,0.679293 q 0.49403,8.707374 0.49403,18.711602 z m 26.43084,20.68771 q 2.34667,0 5.00212,-4.508046 l 4.69334,2.778925 q -1.17334,2.037898 -2.2849,3.458209 -1.04984,1.420354 -3.21125,2.717195 -2.16141,1.296844 -4.81684,1.296844 -3.89052,0 -6.54598,-3.272982 -2.65543,-3.334712 -2.65543,-8.954329 0,-6.422456 2.28492,-11.98037 1.23509,-2.90245 3.51998,-4.693321 2.34667,-1.85264 4.75511,-1.85264 2.47017,0 3.95227,0.802799 1.48212,0.741064 2.34668,1.729137 0.92633,0.926303 1.60562,2.778943 0.67929,1.852639 0.92632,3.025985 0.30878,1.173311 0.49401,3.396466 0.24703,2.964216 0.24703,5.372646 -4.94036,1.358585 -12.78319,2.470159 0.18526,2.470185 0.86457,3.952269 0.67931,1.482111 1.60562,1.482111 z m 1.35861,-18.958576 q -1.35861,0 -2.47019,2.717175 -1.04983,2.717207 -1.23509,6.29898 3.273,-0.679325 5.68142,-1.296852 0,-7.719303 -1.97614,-7.719303 z m 22.04636,-21.181765 q -0.92631,15.623846 -0.92631,28.160008 0,12.53612 0.30877,17.59996 l -7.28701,-0.679297 q -0.24702,-6.422441 -0.24702,-18.217515 0,-11.856835 0.92633,-27.418946 z m 14.57404,0 q -0.92631,15.623846 -0.92631,28.160008 0,12.53612 0.30879,17.59996 l -7.28702,-0.679297 q -0.24703,-6.422441 -0.24703,-18.217515 0,-11.856835 0.92632,-27.418946 z"
       id="text3"
       aria-label="ashell" /><text
       xml:space="preserve"
       style="font-size:19.7556px;font-family:Boogaloo;-inkscape-font-specification:Boogaloo;text-align:start;writing-mode:lr-tb;direction:ltr;text-anchor:start;fill:#82aaff;stroke-width:0;stroke-linecap:round;stroke-opacity:0.399261"
       x="150.45305"
       y="114.235"
       id="text1"><tspan
         sodipodi:role="line"
         id="tspan1"
         style="stroke-width:0"
         x="150.45305"
         y="114.235">A ready to go Wayland </tspan><tspan
         sodipodi:role="line"
         style="stroke-width:0"
         x="150.45305"
         y="138.9295"
         id="tspan2">status bar for Hyprland and Niri </tspan></text></g></svg>
