<?xml version="1.0" encoding="UTF-8" standalone="no"?>
<!-- Created with Inkscape (http://www.inkscape.org/) -->

<svg
   width="150"
   height="60"
   viewBox="0 0 39.687498 15.875"
   version="1.1"
   id="svg1"
   xml:space="preserve"
   inkscape:version="1.4.2 (ebf0e940d0, 2025-05-08)"
   sodipodi:docname="ashell_text.svg"
   xmlns:inkscape="http://www.inkscape.org/namespaces/inkscape"
   xmlns:sodipodi="http://sodipodi.sourceforge.net/DTD/sodipodi-0.dtd"
   xmlns="http://www.w3.org/2000/svg"
   xmlns:svg="http://www.w3.org/2000/svg"><sodipodi:namedview
     id="namedview1"
     pagecolor="#ffffff"
     bordercolor="#000000"
     borderopacity="0.25"
     inkscape:showpageshadow="2"
     inkscape:pageopacity="0.0"
     inkscape:pagecheckerboard="0"
     inkscape:deskcolor="#d1d1d1"
     inkscape:document-units="px"
     inkscape:zoom="1.3015638"
     inkscape:cx="203.60124"
     inkscape:cy="106.41046"
     inkscape:window-width="1396"
     inkscape:window-height="882"
     inkscape:window-x="0"
     inkscape:window-y="0"
     inkscape:window-maximized="1"
     inkscape:current-layer="svg1" /><defs
     id="defs1" /><path
     style="font-size:19.7556px;font-family:Boogaloo;-inkscape-font-specification:Boogaloo;fill:#32344a;stroke-width:0.0661458"
     d="m 1.0561795,9.1129598 q 0.296334,-1.54094 1.12607,-2.60774 0.829735,-1.08656 2.173116,-1.08656 1.34338,0 1.97556,1.12607 0.651934,1.10631 0.651934,3.1609 0,2.0545802 -0.237067,5.6698502 l -1.65947,-0.13829 -0.158045,-0.63217 q -0.928513,0.5334 -1.896538,0.5334 -0.968024,0 -1.600203,-0.63218 -0.632179,-0.65194 -0.632179,-1.85703 0,-1.20509 1.185336,-2.07434 1.205091,-0.8692402 2.765784,-0.9087502 v -0.53341 q 0,-1.56069 -0.750713,-1.56069 -0.375357,0 -0.691446,0.5334 -0.296334,0.51365 -0.434623,1.18534 z m 1.758249,3.6547802 q 0,0.63218 0.750713,0.63218 0.513645,0 1.086558,-0.23706 l 0.03951,-1.65947 q -0.928513,0.079 -1.402648,0.47413 -0.474134,0.37536 -0.474133,0.79022 z M 12.534171,8.7178498 q 0,-1.18534 -0.592668,-1.18534 -0.296334,0 -0.553157,0.29633 -0.237067,0.27658 -0.237067,0.77047 0,0.47414 0.1778,0.79023 0.197556,0.31609 0.691446,0.6321802 0.513646,0.29633 0.790224,0.49389 0.296334,0.1778 0.691446,0.51364 0.80998,0.7112 0.80998,1.83727 0,1.10632 -0.849491,1.79776 -0.829735,0.69145 -1.876782,0.69145 -1.047047,0 -1.8965365,-0.55316 -0.829736,-0.57291 -1.343381,-1.4224 l 1.066802,-1.20509 q 0.7902235,1.36313 1.6594705,1.36313 0.296334,0 0.513645,-0.15804 0.217312,-0.1778 0.217312,-0.47414 0,-0.63218 -0.908758,-1.16558 -0.9680235,-0.5334 -1.5211805,-1.18533 -0.553157,-0.6519402 -0.553157,-1.8372702 0,-1.2051 0.98778,-2.15336 0.9877795,-0.96803 2.1138485,-0.96803 1.145825,0 1.79776,0.79023 0.67169,0.77046 0.67169,2.09409 0,0.5334 -0.118533,1.14582 l -1.79776,-0.15804 q 0.05927,-0.45438 0.05927,-0.75071 z m 5.748882,-1.81752 q 0.908758,-1.12607 1.778004,-1.12607 0.889002,0 1.442159,0.59267 0.968025,1.02729 0.968025,2.60774 0,2.8645602 -0.217312,5.9859502 l -2.29165,-0.21732 q 0.13829,-2.90407 0.13829,-5.7093602 0,-1.04705 -0.533402,-1.04705 -0.632179,0 -1.363136,2.7657802 -0.03951,1.97556 -0.197556,4.48452 L 15.69507,15.01988 q 0.256823,-3.39796 0.256823,-7.5861502 0,-4.18818 -0.13829,-6.73666 l 2.311406,0.21731 q 0.158044,2.78554 0.158044,5.98595 z m 8.455381,6.6181302 q 0.750713,0 1.600204,-1.44216 l 1.501426,0.889 q -0.375357,0.65194 -0.730958,1.10631 -0.335845,0.45438 -1.027291,0.86925 -0.691446,0.41487 -1.540937,0.41487 -1.244602,0 -2.094093,-1.04705 -0.849491,-1.0668 -0.849491,-2.86456 0,-2.0545802 0.730957,-3.8325902 0.395112,-0.92851 1.126069,-1.50142 0.750713,-0.59267 1.521182,-0.59267 0.790224,0 1.264358,0.25682 0.474134,0.23707 0.750713,0.55316 0.296334,0.29633 0.513645,0.889 0.217312,0.59267 0.296334,0.96803 0.09878,0.37535 0.158045,1.08655 0.07902,0.9482702 0.07902,1.7187402 -1.580448,0.43462 -4.08941,0.79022 0.05927,0.79023 0.276579,1.26436 0.217311,0.47414 0.513645,0.47414 z m 0.434624,-6.0649702 q -0.434624,0 -0.790224,0.86924 -0.335846,0.86925 -0.395112,2.0150802 1.047046,-0.21732 1.817515,-0.4148702 0,-2.46945 -0.632179,-2.46945 z m 7.05276,-6.77617 q -0.296334,4.99816 -0.296334,9.00855 0,4.0103902 0.09878,5.6303502 l -2.331161,-0.21731 q -0.07902,-2.05459 -0.07902,-5.8279102 0,-3.79307 0.296334,-8.77148 z m 4.662323,0 q -0.296334,4.99816 -0.296334,9.00855 0,4.0103902 0.09878,5.6303502 l -2.331161,-0.21731 q -0.07902,-2.05459 -0.07902,-5.8279102 0,-3.79307 0.296334,-8.77148 z"
     id="text3"
     aria-label="ashell" /></svg>
