<?xml version="1.0" encoding="UTF-8" standalone="no"?>
<!-- Created with Inkscape (http://www.inkscape.org/) -->

<svg
   width="275"
   height="275"
   viewBox="0 0 72.760413 72.760419"
   version="1.1"
   id="svg1"
   xml:space="preserve"
   inkscape:version="1.4.2 (ebf0e940d0, 2025-05-08)"
   sodipodi:docname="logo.svg"
   xmlns:inkscape="http://www.inkscape.org/namespaces/inkscape"
   xmlns:sodipodi="http://sodipodi.sourceforge.net/DTD/sodipodi-0.dtd"
   xmlns="http://www.w3.org/2000/svg"
   xmlns:svg="http://www.w3.org/2000/svg"><sodipodi:namedview
     id="namedview1"
     pagecolor="#ffffff"
     bordercolor="#000000"
     borderopacity="0.25"
     inkscape:showpageshadow="2"
     inkscape:pageopacity="0.0"
     inkscape:pagecheckerboard="0"
     inkscape:deskcolor="#d1d1d1"
     inkscape:document-units="px"
     inkscape:zoom="1.3015638"
     inkscape:cx="203.98539"
     inkscape:cy="162.49684"
     inkscape:window-width="1396"
     inkscape:window-height="882"
     inkscape:window-x="0"
     inkscape:window-y="0"
     inkscape:window-maximized="1"
     inkscape:current-layer="layer1" /><defs
     id="defs1" /><rect
     style="fill:#32344a;stroke-width:0.290897"
     id="rect1"
     width="72.760414"
     height="72.760414"
     x="31.187923"
     y="19.850698"
     ry="17.176725"
     transform="translate(-31.187922,-19.850698)" /><g
     inkscape:label="Layer 1"
     inkscape:groupmode="layer"
     id="layer1"
     transform="matrix(0.9497903,0,0,0.9497903,-27.795347,-17.027361)"><path
       style="fill:#a9b1d6;fill-opacity:1;stroke:none;stroke-width:0.0632697;stroke-dasharray:none;stroke-opacity:1"
       d="m 90.81299,41.905155 c -0.634981,-0.714388 -0.371532,0.615721 -13.014534,7.115952 -12.642999,6.500231 -17.720488,9.066856 -18.065877,12.13801 -0.298662,2.655667 1.514795,3.125982 2.145325,6.915843 0.63053,3.78986 -1.992446,17.018789 -2.766339,19.223219 -0.773892,2.20443 1.490387,2.594165 2.004185,0.564556 0.513799,-2.029609 2.926592,-10.578249 3.91955,-16.953781 0.992956,-6.375531 1.401565,-8.459975 3.043063,-11.744165 1.641498,-3.28419 11.71748,-8.489832 15.653713,-11.332946 3.936232,-2.843116 7.715897,-5.2123 7.080914,-5.926688 z"
       id="path1"
       sodipodi:nodetypes="zzszzzzzzz" /><path
       style="fill:#7aa2f7;fill-opacity:1;stroke:none;stroke-width:0.0632697;stroke-dasharray:none;stroke-opacity:1"
       d="m 53.353069,70.333194 c 0.129046,-1.044129 0.55506,-9.473711 4.597564,-14.816071 4.042504,-5.342362 11.079199,-7.48489 12.459162,-7.801559 1.379962,-0.316667 1.347237,-2.076579 -0.169367,-2.152379 -1.516603,-0.0758 -9.489964,2.970129 -14.085339,8.828665 -4.595374,5.858535 -4.947319,14.5126 -5.024762,15.582892 -0.154885,2.140583 1.964649,2.446708 2.222742,0.358452 z"
       id="path2"
       sodipodi:nodetypes="szzzzss" /><path
       style="fill:#a9b1d6;fill-opacity:1;stroke:none;stroke-width:0.0632697;stroke-dasharray:none;stroke-opacity:1"
       d="m 44.428201,40.127597 c -0.603004,0.925586 0.47189,1.92855 1.395449,0.525469 0.923558,-1.40308 3.855449,-4.951506 7.105999,-6.592761 3.25055,-1.641255 7.600775,-1.671549 10.726613,-1.975957 3.125838,-0.304407 4.875063,-3.170604 7.536859,-4.714063 2.661795,-1.543458 4.792457,-2.622796 5.993713,-2.822793 1.201257,-0.199996 1.004918,-1.375902 0.02196,-1.266831 -0.982951,0.10907 -3.534424,1.056816 -6.739625,2.8111 -3.2052,1.754283 -4.717683,3.799992 -6.629431,4.270684 -1.911749,0.470693 -6.295751,-0.94451 -11.756932,2.371146 -5.461181,3.315655 -7.051608,6.468418 -7.654611,7.394006 z"
       id="path3"
       sodipodi:nodetypes="zzzzzzzzzzz" /></g></svg>
