<?xml version="1.0" encoding="UTF-8" standalone="no"?>
<!-- Created with Inkscape (http://www.inkscape.org/) -->

<svg
   width="800"
   height="275"
   viewBox="0 0 211.66665 72.760419"
   version="1.1"
   id="svg1"
   xml:space="preserve"
   inkscape:version="1.4.2 (ebf0e940d0, 2025-05-08)"
   sodipodi:docname="logo_header.svg"
   xmlns:inkscape="http://www.inkscape.org/namespaces/inkscape"
   xmlns:sodipodi="http://sodipodi.sourceforge.net/DTD/sodipodi-0.dtd"
   xmlns="http://www.w3.org/2000/svg"
   xmlns:svg="http://www.w3.org/2000/svg"><sodipodi:namedview
     id="namedview1"
     pagecolor="#ffffff"
     bordercolor="#000000"
     borderopacity="0.25"
     inkscape:showpageshadow="2"
     inkscape:pageopacity="0.0"
     inkscape:pagecheckerboard="0"
     inkscape:deskcolor="#d1d1d1"
     inkscape:document-units="px"
     inkscape:zoom="0.6507819"
     inkscape:cx="520.14354"
     inkscape:cy="300.40786"
     inkscape:window-width="1396"
     inkscape:window-height="882"
     inkscape:window-x="0"
     inkscape:window-y="0"
     inkscape:window-maximized="1"
     inkscape:current-layer="layer1" /><defs
     id="defs1" /><rect
     style="fill:#32344a;stroke-width:0.290897"
     id="rect1"
     width="72.760414"
     height="72.760414"
     x="1.4313965e-06"
     y="4.7106934e-07"
     ry="17.176725" /><g
     inkscape:label="Layer 1"
     inkscape:groupmode="layer"
     id="layer1"
     transform="matrix(0.9497903,0,0,0.9497903,-27.795347,-17.027361)"><path
       style="fill:#a9b1d6;fill-opacity:1;stroke:none;stroke-width:0.0632697;stroke-dasharray:none;stroke-opacity:1"
       d="m 90.81299,41.905155 c -0.634981,-0.714388 -0.371532,0.615721 -13.014534,7.115952 -12.642999,6.500231 -17.720488,9.066856 -18.065877,12.13801 -0.298662,2.655667 1.514795,3.125982 2.145325,6.915843 0.63053,3.78986 -1.992446,17.018789 -2.766339,19.223219 -0.773892,2.20443 1.490387,2.594165 2.004185,0.564556 0.513799,-2.029609 2.926592,-10.578249 3.91955,-16.953781 0.992956,-6.375531 1.401565,-8.459975 3.043063,-11.744165 1.641498,-3.28419 11.71748,-8.489832 15.653713,-11.332946 3.936232,-2.843116 7.715897,-5.2123 7.080914,-5.926688 z"
       id="path1"
       sodipodi:nodetypes="zzszzzzzzz" /><path
       style="fill:#7aa2f7;fill-opacity:1;stroke:none;stroke-width:0.0632697;stroke-dasharray:none;stroke-opacity:1"
       d="m 53.353069,70.333194 c 0.129046,-1.044129 0.55506,-9.473711 4.597564,-14.816071 4.042504,-5.342362 11.079199,-7.48489 12.459162,-7.801559 1.379962,-0.316667 1.347237,-2.076579 -0.169367,-2.152379 -1.516603,-0.0758 -9.489964,2.970129 -14.085339,8.828665 -4.595374,5.858535 -4.947319,14.5126 -5.024762,15.582892 -0.154885,2.140583 1.964649,2.446708 2.222742,0.358452 z"
       id="path2"
       sodipodi:nodetypes="szzzzss" /><path
       style="fill:#a9b1d6;fill-opacity:1;stroke:none;stroke-width:0.0632697;stroke-dasharray:none;stroke-opacity:1"
       d="m 44.428201,40.127597 c -0.603004,0.925586 0.47189,1.92855 1.395449,0.525469 0.923558,-1.40308 3.855449,-4.951506 7.105999,-6.592761 3.25055,-1.641255 7.600775,-1.671549 10.726613,-1.975957 3.125838,-0.304407 4.875063,-3.170604 7.536859,-4.714063 2.661795,-1.543458 4.792457,-2.622796 5.993713,-2.822793 1.201257,-0.199996 1.004918,-1.375902 0.02196,-1.266831 -0.982951,0.10907 -3.534424,1.056816 -6.739625,2.8111 -3.2052,1.754283 -4.717683,3.799992 -6.629431,4.270684 -1.911749,0.470693 -6.295751,-0.94451 -11.756932,2.371146 -5.461181,3.315655 -7.051608,6.468418 -7.654611,7.394006 z"
       id="path3"
       sodipodi:nodetypes="zzzzzzzzzzz" /><path
       style="font-size:19.7556px;font-family:Boogaloo;-inkscape-font-specification:Boogaloo;fill:#32344a;stroke-width:0.217697"
       d="m 127.60957,60.099542 q 0.97528,-5.071492 3.70609,-8.582511 2.7308,-3.576052 7.15209,-3.576052 4.42126,0 6.50188,3.706084 2.14564,3.641053 2.14564,10.403057 0,6.761972 -0.78023,18.660432 l -5.46161,-0.455133 -0.52015,-2.080578 q -3.05588,1.755508 -6.24181,1.755508 -3.18594,0 -5.26655,-2.080609 -2.08061,-2.145645 -2.08061,-6.1118 0,-3.966153 3.90115,-6.827003 3.96617,-2.860817 9.10266,-2.99085 v -1.755545 q 0,-5.136492 -2.47072,-5.136492 -1.23536,0 -2.27566,1.755509 -0.97528,1.690507 -1.43041,3.901155 z m 5.78669,12.028501 q 0,2.080609 2.47074,2.080609 1.69045,0 3.57602,-0.780204 l 0.13008,-5.461595 q -3.05587,0.260013 -4.61633,1.560441 -1.56046,1.235374 -1.56046,2.600749 z m 31.9893,-13.328875 q 0,-3.901153 -1.95056,-3.901153 -0.97527,0 -1.82052,0.975273 -0.78023,0.910271 -0.78023,2.535747 0,1.560475 0.58518,2.600778 0.65018,1.040307 2.27565,2.080613 1.69048,0.975272 2.60074,1.625475 0.9753,0.585168 2.27567,1.690476 2.66579,2.340679 2.66579,6.046768 0,3.641083 -2.79583,5.916729 -2.7308,2.275679 -6.17677,2.275679 -3.44604,0 -6.24185,-1.820541 -2.73082,-1.885544 -4.4213,-4.681361 l 3.51104,-3.966154 q 2.60075,4.486292 5.4616,4.486292 0.97529,0 1.69051,-0.520138 0.7152,-0.585169 0.7152,-1.560474 0,-2.08061 -2.99089,-3.836121 -3.18593,-1.75551 -5.00646,-3.90112 -1.82054,-2.145646 -1.82054,-6.046768 0,-3.966186 3.25095,-7.087069 3.25096,-3.185951 6.95705,-3.185951 3.77109,0 5.91671,2.600782 2.21065,2.535713 2.21065,6.892002 0,1.755508 -0.39012,3.771087 l -5.91673,-0.520136 q 0.19506,-1.495443 0.19506,-2.470715 z m 18.92055,-5.981763 q 2.99087,-3.706088 5.85169,-3.706088 2.92587,0 4.74641,1.950578 3.18593,3.380986 3.18593,8.582513 0,9.427749 -0.7152,19.700771 l -7.54222,-0.715234 q 0.45512,-9.557788 0.45512,-18.790471 0,-3.446015 -1.75551,-3.446015 -2.0806,0 -4.48628,9.102647 -0.13009,6.501901 -0.6502,14.759313 l -7.60723,-0.715204 q 0.84524,-11.18326 0.84524,-24.967302 0,-13.784004 -0.45514,-22.171484 l 7.60724,0.715204 q 0.52015,9.16768 0.52015,19.700772 z m 27.82808,21.781383 q 2.47072,0 5.26655,-4.74639 l 4.94145,2.925848 q -1.23537,2.145644 -2.40569,3.641053 -1.10534,1.495441 -3.38101,2.86085 -2.27567,1.365404 -5.07148,1.365404 -4.09618,0 -6.89202,-3.446018 -2.79581,-3.511018 -2.79581,-9.427748 0,-6.761974 2.40571,-12.613702 1.30038,-3.055885 3.70606,-4.941428 2.47072,-1.950578 5.00648,-1.950578 2.60076,0 4.16121,0.845238 1.56047,0.78024 2.47073,1.820546 0.9753,0.975271 1.6905,2.925849 0.7152,1.950577 0.97529,3.185951 0.3251,1.235337 0.52013,3.576017 0.26009,3.120916 0.26009,5.656665 -5.20153,1.430405 -13.45896,2.600746 0.19505,2.600782 0.91027,4.161222 0.71522,1.560475 1.6905,1.560475 z m 1.43043,-19.960841 q -1.43043,0 -2.60077,2.860816 -1.10533,2.86085 -1.30039,6.631969 3.44603,-0.715236 5.98177,-1.365408 0,-8.127377 -2.08061,-8.127377 z M 236.77644,32.33643 q -0.97528,16.449785 -0.97528,29.648658 0,13.198869 0.32509,18.530433 l -7.67223,-0.715204 q -0.26008,-6.762004 -0.26008,-19.180637 0,-12.483635 0.9753,-28.868422 z m 15.34448,0 q -0.97528,16.449785 -0.97528,29.648658 0,13.198869 0.32512,18.530433 l -7.67224,-0.715204 q -0.26009,-6.762004 -0.26009,-19.180637 0,-12.483635 0.97529,-28.868422 z"
       id="text3"
       aria-label="ashell" /></g></svg>
