<svg width="24" height="24" viewBox="0 0 24 24" fill="none" xmlns="http://www.w3.org/2000/svg">
<path d="M0.400391 8.2002C0.84221 7.86896 1.46847 7.95862 1.7998 8.40039L4.7998 12.4004C5.13104 12.8422 5.04139 13.4685 4.59961 13.7998C4.15779 14.131 3.53153 14.0414 3.2002 13.5996L0.200195 9.59961C-0.131037 9.15779 -0.0413852 8.53153 0.400391 8.2002Z" fill="black"/>
<path d="M22.2002 8.40039C22.5315 7.95862 23.1578 7.86896 23.5996 8.2002C24.0414 8.53153 24.131 9.15779 23.7998 9.59961L20.7998 13.5996C20.4685 14.0414 19.8422 14.131 19.4004 13.7998C18.9586 13.4685 18.869 12.8422 19.2002 12.4004L22.2002 8.40039Z" fill="black"/>
<path d="M16.0381 3.72559C16.1898 3.19468 16.7435 2.88662 17.2744 3.03809C17.8053 3.18977 18.1134 3.7435 17.9619 4.27441L15.9619 11.2744C15.8102 11.8053 15.2565 12.1134 14.7256 11.9619C14.1947 11.8102 13.8866 11.2565 14.0381 10.7256L16.0381 3.72559Z" fill="black"/>
<path d="M6.72559 3.03809C7.2565 2.88662 7.81023 3.19468 7.96191 3.72559L9.96191 10.7256C10.1134 11.2565 9.80532 11.8102 9.27441 11.9619C8.7435 12.1134 8.18977 11.8053 8.03809 11.2744L6.03809 4.27441C5.88662 3.7435 6.19468 3.18977 6.72559 3.03809Z" fill="black"/>
<path d="M9 15H15C16.0609 15 17.0783 15.4214 17.8284 16.1716C18.5786 16.9217 19 17.9391 19 19V20H5V19C5 17.9391 5.42143 16.9217 6.17157 16.1716C6.92172 15.4214 7.93913 15 9 15Z" fill="black"/>
</svg>
