<?xml version="1.0" encoding="UTF-8" standalone="no"?>
<!-- Created with Inkscape (http://www.inkscape.org/) -->

<svg
   width="275"
   height="275"
   viewBox="0 0 72.760413 72.760419"
   version="1.1"
   id="svg1"
   xml:space="preserve"
   inkscape:version="1.4.2 (ebf0e940d0, 2025-05-08)"
   sodipodi:docname="logo.svg"
   xmlns:inkscape="http://www.inkscape.org/namespaces/inkscape"
   xmlns:sodipodi="http://sodipodi.sourceforge.net/DTD/sodipodi-0.dtd"
   xmlns="http://www.w3.org/2000/svg"
   xmlns:svg="http://www.w3.org/2000/svg"><sodipodi:namedview
     id="namedview1"
     pagecolor="#ffffff"
     bordercolor="#000000"
     borderopacity="0.25"
     inkscape:showpageshadow="2"
     inkscape:pageopacity="0.0"
     inkscape:pagecheckerboard="0"
     inkscape:deskcolor="#d1d1d1"
     inkscape:document-units="px"
     inkscape:zoom="1.3015638"
     inkscape:cx="204.36954"
     inkscape:cy="162.49684"
     inkscape:window-width="1396"
     inkscape:window-height="882"
     inkscape:window-x="0"
     inkscape:window-y="0"
     inkscape:window-maximized="1"
     inkscape:current-layer="layer1" /><defs
     id="defs1" /><rect
     style="fill:#32344a;stroke-width:0.290897"
     id="rect1"
     width="72.760414"
     height="72.760414"
     x="31.187923"
     y="19.850698"
     ry="17.176725"
     transform="translate(-31.187922,-19.850698)" /><g
     inkscape:label="Layer 1"
     inkscape:groupmode="layer"
     id="layer1"
     transform="matrix(0.9497903,0,0,0.9497903,-27.795347,-17.027361)"><path
       style="fill:#a9b1d6;fill-opacity:1;stroke:none;stroke-width:0.0661458;stroke-dasharray:none;stroke-opacity:1"
       d="m 91.869666,41.253928 c -0.663847,-0.746863 -0.388422,0.643711 -13.606155,7.439433 -13.21773,6.795721 -18.526034,9.479021 -18.887124,12.689785 -0.312239,2.776389 1.583655,3.268084 2.242848,7.230226 0.659193,3.962142 -2.08302,17.792437 -2.892092,20.097077 -0.809072,2.30464 1.558137,2.712092 2.095292,0.59022 0.537155,-2.121872 3.05963,-11.05912 4.097726,-17.724473 1.038095,-6.665353 1.465278,-8.844553 3.181396,-12.278037 1.716118,-3.433484 12.250139,-8.875767 16.365307,-11.848125 4.115167,-2.972359 8.06665,-5.449243 7.402802,-6.196106 z"
       id="path1"
       sodipodi:nodetypes="zzszzzzzzz" /><path
       style="fill:#7aa2f7;fill-opacity:1;stroke:none;stroke-width:0.0661458;stroke-dasharray:none;stroke-opacity:1"
       d="m 52.706874,70.974262 c 0.134912,-1.091593 0.580292,-9.904371 4.806562,-15.489587 4.22627,-5.585217 11.582843,-7.825141 13.025537,-8.156205 1.442693,-0.331063 1.40848,-2.170977 -0.177066,-2.250223 -1.585546,-0.07925 -9.921364,3.105146 -14.725637,9.230002 -4.804273,6.124855 -5.172217,15.172321 -5.25318,16.291267 -0.161926,2.23789 2.053959,2.557931 2.323784,0.374746 z"
       id="path2"
       sodipodi:nodetypes="szzzzss" /><path
       style="fill:#a9b1d6;fill-opacity:1;stroke:none;stroke-width:0.0661458;stroke-dasharray:none;stroke-opacity:1"
       d="m 43.376295,39.395565 c -0.630415,0.967662 0.493342,2.016219 1.458884,0.549356 0.965542,-1.466862 4.030712,-5.176593 7.429027,-6.892457 3.398315,-1.715864 7.946295,-1.747536 11.214229,-2.065781 3.267933,-0.318245 5.096675,-3.314735 7.879472,-4.928357 2.782797,-1.613622 5.010315,-2.742025 6.266179,-2.951113 1.255864,-0.209088 1.050599,-1.438449 0.02296,-1.32442 -1.027635,0.114029 -3.695094,1.104858 -7.045998,2.938889 -3.350904,1.83403 -4.932142,3.972734 -6.930795,4.464823 -1.998654,0.492089 -6.581946,-0.987446 -12.291384,2.478934 -5.709438,3.46638 -7.372163,6.762463 -8.002578,7.730126 z"
       id="path3"
       sodipodi:nodetypes="zzzzzzzzzzz" /></g></svg>
